<?xml version="1.0" standalone="no"?>
<!DOCTYPE svg PUBLIC "-//W3C//DTD SVG 20010904//EN"
 "http://www.w3.org/TR/2001/REC-SVG-20010904/DTD/svg10.dtd">
<svg version="1.0" xmlns="http://www.w3.org/2000/svg"
 width="1024.000000pt" height="1024.000000pt" viewBox="0 0 1024.000000 1024.000000"
 preserveAspectRatio="xMidYMid meet">

<g transform="translate(0.000000,1024.000000) scale(0.100000,-0.100000)"
fill="#000000" stroke="none">
<path d="M0 5120 l0 -5120 5120 0 5120 0 0 5120 0 5120 -5120 0 -5120 0 0
-5120z m5410 3150 l0 -470 -45 0 -45 0 0 470 0 470 45 0 45 0 0 -470z m510
194 c209 -29 557 -124 725 -199 l55 -24 -17 -38 c-10 -21 -18 -40 -20 -42 -1
-2 -75 24 -165 57 -235 87 -502 150 -723 170 l-80 7 -3 49 -3 48 58 -6 c32 -4
110 -14 173 -22z m-1360 -248 l0 -64 -52 -12 c-78 -19 -300 -96 -408 -142
-127 -54 -309 -153 -459 -251 l-124 -81 -38 45 c-21 24 -37 49 -35 54 6 21
292 206 423 273 199 102 353 161 548 212 153 40 145 42 145 -34z m1305 -36
c162 -24 366 -75 504 -127 83 -31 278 -117 288 -127 6 -6 -38 -76 -48 -76 -5
0 -55 21 -111 46 -223 101 -474 173 -715 205 l-93 12 0 43 c0 52 -12 51 175
24z m-918 -55 c72 -30 105 -80 105 -156 0 -93 -65 -159 -156 -159 -105 0 -170
68 -163 171 4 68 33 114 91 140 50 23 76 24 123 4z m1005 -249 c202 -44 391
-109 578 -197 142 -68 330 -178 330 -193 0 -6 -11 -24 -24 -40 l-23 -30 -99
56 c-173 97 -339 176 -461 218 -153 54 -354 105 -470 120 l-93 13 0 45 0 45
74 -6 c41 -4 126 -18 188 -31z m-1531 -141 l2 -79 -84 -33 c-370 -144 -774
-442 -1028 -758 -69 -85 -256 -364 -266 -396 -4 -10 -11 -19 -17 -19 -18 0
-137 94 -138 107 0 16 129 206 229 338 150 197 439 463 676 622 161 108 408
233 550 279 39 12 71 21 72 20 1 0 3 -37 4 -81z m2544 5 l24 -25 -28 -34 -29
-35 -51 43 c-55 46 -54 43 -13 93 14 17 16 17 44 0 16 -9 40 -28 53 -42z
m-3775 -202 c62 -32 90 -77 90 -145 0 -62 -17 -100 -60 -136 -103 -87 -270 -2
-270 136 0 54 40 118 90 144 54 29 94 29 150 1z m2100 -62 l0 -85 -42 -5 c-24
-2 -86 -10 -138 -16 -514 -59 -1007 -315 -1340 -695 -82 -93 -209 -262 -210
-277 0 -9 -220 -11 -220 -3 0 2 16 31 37 62 227 360 582 680 963 869 264 131
632 230 873 233 l77 1 0 -84z m445 59 c217 -38 434 -110 655 -216 188 -90 343
-193 491 -323 l47 -41 -57 -60 c-31 -33 -59 -61 -63 -63 -4 -2 -49 30 -100 70
-129 102 -150 116 -259 181 -269 159 -624 274 -936 302 l-73 7 0 85 0 86 103
-6 c56 -3 143 -13 192 -22z m1687 -177 c219 -217 412 -472 542 -719 l57 -107
-40 -20 c-47 -25 -39 -32 -115 107 -127 230 -291 445 -515 674 l-144 147 28
30 c16 17 32 30 36 30 3 0 71 -64 151 -142z m713 -379 c96 -142 196 -330 255
-475 22 -53 40 -101 40 -106 0 -4 -30 -8 -66 -8 l-66 0 -21 53 c-70 168 -202
409 -305 556 -29 41 -52 79 -52 86 0 6 19 26 43 43 l42 31 23 -27 c12 -15 61
-84 107 -153z m-5296 126 c54 -28 45 -106 -14 -121 -29 -7 -70 16 -79 44 -12
38 18 82 62 91 2 1 16 -6 31 -14z m2561 -210 l0 -155 -55 0 -55 0 0 155 0 155
55 0 55 0 0 -155z m189 139 l31 -6 0 -155 0 -155 -37 7 c-21 4 -41 9 -45 11
-5 3 -8 72 -8 155 0 162 -3 155 59 143z m187 -38 c18 -6 22 -17 28 -83 8 -98
8 -243 0 -243 -4 0 -24 5 -45 12 l-39 11 0 159 c0 174 -5 161 56 144z m212
-229 c1 -92 0 -167 -3 -167 -3 0 -21 7 -40 14 l-35 15 0 165 0 165 38 -13 37
-13 3 -166z m192 -91 l0 -168 -42 25 -43 25 -3 144 c-1 78 0 153 3 166 l5 22
40 -22 40 -23 0 -169z m-3532 148 c16 -11 22 -25 22 -51 0 -68 -59 -96 -107
-51 -31 29 -30 71 3 97 32 25 52 26 82 5z m4469 -57 c34 -40 91 -111 127 -159
l66 -87 -57 -42 c-32 -23 -65 -48 -74 -56 -15 -12 -21 -7 -55 44 -21 32 -76
104 -121 161 l-84 102 58 55 c32 30 63 54 68 54 6 0 38 -33 72 -72z m-769 -24
c37 -28 41 -56 10 -77 -28 -20 -43 -20 -62 0 -26 25 -19 122 8 107 6 -3 26
-17 44 -30z m-2288 -73 c58 -58 -31 -149 -92 -93 -40 36 -8 113 47 113 14 0
34 -9 45 -20z m2698 4 c15 -10 22 -25 22 -49 0 -58 -69 -86 -110 -45 -26 26
-25 51 1 84 23 29 54 33 87 10z m-4244 -165 c69 -55 -9 -154 -82 -103 -37 26
-26 101 18 117 27 10 37 7 64 -14z m2890 0 c57 -45 13 -133 -58 -115 -55 14
-59 96 -6 123 33 17 33 17 64 -8z m936 -69 c24 -24 26 -57 3 -82 -34 -38 -103
-11 -103 40 0 56 61 81 100 42z m-1841 -34 c-1 -20 -2 -20 -6 -1 -3 11 -10 27
-17 35 -10 13 -9 13 7 1 9 -7 16 -23 16 -35z m-2039 -883 c1 -848 11 -988 87
-1253 196 -685 795 -1376 1470 -1696 129 -61 341 -142 481 -184 l112 -33 0
-59 c0 -32 -3 -58 -6 -58 -21 0 -184 48 -296 86 -247 86 -480 204 -703 355
-176 119 -268 195 -416 342 -502 498 -791 1074 -839 1671 -5 71 -10 416 -10
767 l0 639 60 0 60 0 0 -577z m250 -135 c0 -421 4 -750 10 -803 9 -79 49 -290
66 -352 5 -18 1 -22 -28 -28 -18 -3 -41 -9 -50 -11 -19 -6 -31 30 -73 221 -52
235 -55 278 -55 1008 l0 677 65 0 65 0 0 -712z m1225 587 c259 -74 427 -282
428 -530 1 -145 -34 -253 -107 -333 -47 -51 -123 -103 -179 -121 l-37 -13 41
-76 c23 -43 75 -134 115 -204 40 -70 93 -163 118 -207 l45 -81 -182 0 -182 0
-51 88 c-29 48 -91 159 -139 247 -48 88 -96 172 -107 188 l-19 27 -135 0 -134
0 0 -275 0 -275 -170 0 -170 0 0 788 c0 434 3 792 8 796 4 4 185 6 402 3 333
-4 404 -7 455 -22z m1238 -3 c253 -69 452 -268 537 -537 33 -107 38 -272 11
-400 -61 -299 -288 -534 -581 -605 -76 -18 -118 -20 -397 -20 l-313 0 0 796 0
796 333 -5 c296 -4 340 -7 410 -25z m3507 -162 l0 -191 -213 -227 c-476 -506
-597 -637 -597 -644 0 -5 182 -8 405 -8 l405 0 0 -160 c0 -88 -1 -163 -2 -166
-5 -11 -871 -17 -1230 -9 l-338 7 26 32 c43 51 816 877 977 1044 81 84 147
157 147 162 0 6 -313 10 -838 10 -803 0 -842 -1 -916 -20 -146 -37 -246 -114
-304 -235 -66 -134 -69 -259 -9 -389 60 -128 156 -214 290 -259 57 -19 90 -21
420 -25 196 -2 357 -7 357 -10 0 -10 -269 -305 -287 -316 -8 -4 -121 -6 -251
-3 -275 5 -317 13 -468 87 -173 84 -313 237 -383 418 -116 301 -60 604 151
827 136 144 310 231 505 253 43 5 545 10 1116 11 l1037 1 0 -190z m-6455 53
c-2 -38 0 -336 5 -663 7 -551 9 -604 30 -720 17 -99 76 -321 117 -443 5 -17 0
-18 -58 -15 l-63 3 -28 90 c-111 357 -127 499 -128 1182 l-2 498 59 67 c32 37
61 67 65 67 4 1 5 -29 3 -66z m5095 -778 l0 -275 -170 0 -170 0 0 110 0 110
-149 0 -148 0 -158 165 -157 165 476 0 476 0 0 -275z m-3617 -1133 l2 -72
-322 0 -323 0 0 75 0 75 321 -2 321 -3 1 -73z m1715 51 c31 -42 -1 -113 -52
-113 -29 0 -66 42 -66 76 0 32 47 67 80 59 14 -3 31 -13 38 -22z m2052 -48 l0
-75 -415 0 -415 0 0 75 0 75 415 0 415 0 0 -75z m260 0 l0 -75 -65 0 -65 0 0
75 0 75 65 0 65 0 0 -75z m-5235 -202 c319 -615 839 -1117 1460 -1413 173 -83
305 -134 503 -196 l152 -48 0 -64 c0 -56 -2 -63 -17 -58 -10 2 -54 14 -98 27
-327 89 -753 291 -1050 497 -432 300 -827 756 -1067 1232 -37 74 -68 143 -68
153 0 14 9 17 54 17 l54 0 77 -147z m1568 45 c17 -23 19 -31 9 -53 -25 -54
-101 -56 -121 -3 -9 25 3 68 22 80 24 16 70 3 90 -24z m0 -812 c121 -71 296
-151 443 -202 l111 -38 2 -41 c2 -61 -8 -95 -29 -95 -34 0 -286 92 -421 154
-75 35 -172 84 -215 110 -92 56 -234 156 -234 166 0 3 21 29 46 58 l46 52 77
-54 c42 -29 120 -79 174 -110z m3341 95 l27 -28 -73 -67 c-96 -89 -264 -215
-413 -311 -117 -75 -433 -238 -487 -251 -24 -5 -28 -2 -33 23 -4 15 -9 36 -12
45 -3 14 12 25 69 50 146 64 326 162 463 253 131 86 384 279 399 304 12 18 31
13 60 -18z m556 -62 c0 -3 -42 -47 -92 -97 -301 -293 -661 -555 -987 -717
-149 -75 -364 -168 -414 -181 l-28 -6 3 47 3 48 131 57 c338 147 638 326 922
554 119 95 325 281 363 329 l31 39 34 -33 c19 -18 34 -36 34 -40z m-407 -69
c15 -16 27 -32 27 -34 0 -15 -313 -252 -465 -353 -243 -161 -641 -359 -676
-337 -5 3 -9 22 -9 43 l0 38 113 53 c322 152 652 359 881 551 44 38 86 69 92
69 6 0 23 -13 37 -30z m-1203 -180 c11 -21 20 -43 20 -48 0 -25 -392 -152
-517 -168 l-53 -7 0 45 0 45 98 27 c124 34 329 101 384 126 24 10 44 19 45 19
2 1 12 -17 23 -39z m-940 -590 l0 -510 -45 0 -45 0 0 510 0 510 45 0 45 0 0
-510z m821 220 c8 -26 9 -44 3 -50 -11 -11 -321 -95 -387 -105 l-44 -7 -7 37
c-4 21 -4 41 1 45 4 3 73 24 153 45 80 21 168 46 195 56 70 25 73 24 86 -21z
m-1230 -20 c27 -15 52 -68 45 -96 -10 -38 -42 -64 -80 -64 -48 0 -65 8 -81 41
-22 42 -18 67 14 100 31 30 67 37 102 19z m1007 -357 l-3 -47 -85 -18 c-116
-23 -110 -25 -110 27 0 38 3 45 23 50 12 3 49 11 82 19 98 23 97 23 93 -31z"/>
<path d="M3410 5460 l0 -201 243 3 244 3 41 28 c126 83 103 256 -44 332 l-58
30 -213 3 -213 4 0 -202z"/>
<path d="M4770 5200 l0 -462 143 4 c136 3 145 4 210 35 75 36 161 112 206 182
136 213 70 502 -144 633 -76 47 -132 60 -277 65 l-138 6 0 -463z"/>
</g>
</svg>
